<?xml version="1.0" encoding="UTF-8"?>
<!DOCTYPE svg PUBLIC "-//W3C//DTD SVG 1.1//EN" "http://www.w3.org/Graphics/SVG/1.1/DTD/svg11.dtd">
<!-- Creator: CorelDRAW 2019 (64 Bit) -->
<svg xmlns="http://www.w3.org/2000/svg" xml:space="preserve" width="2489px" height="2277px" version="1.1" style="shape-rendering:geometricPrecision; text-rendering:geometricPrecision; image-rendering:optimizeQuality; fill-rule:evenodd; clip-rule:evenodd"
viewBox="0 0 1727.75 1580.18"
 xmlns:xlink="http://www.w3.org/1999/xlink">
 <defs>
  <style type="text/css">
   <![CDATA[
    .fil0 {fill:none}
    .fil2 {fill:black}
    .fil1 {fill:white}
    .fil3 {fill:#33CC33;fill-rule:nonzero}
   ]]>
  </style>
 </defs>
 <g id="Camada_x0020_1">
  <metadata id="CorelCorpID_0Corel-Layer"/>
  <rect class="fil0" width="1727.75" height="1580.18"/>
  <ellipse class="fil1" transform="matrix(3.2579 -1.23695 1.25427 3.30352 1524.36 978.087)" rx="10.81" ry="10.66"/>
  <ellipse class="fil1" transform="matrix(4.88832 -1.85598 1.88197 4.95676 681.859 307.615)" rx="10.81" ry="10.66"/>
  <ellipse class="fil1" transform="matrix(4.88832 -1.85598 1.88197 4.95676 1348.19 307.053)" rx="10.81" ry="10.66"/>
  <ellipse class="fil1" transform="matrix(3.2579 -1.23695 1.25427 3.30352 679.58 129.899)" rx="10.81" ry="10.66"/>
  <ellipse class="fil1" transform="matrix(3.2579 -1.23695 1.25427 3.30352 1045.13 134.683)" rx="10.81" ry="10.66"/>
  <ellipse class="fil1" transform="matrix(4.88832 -1.85598 1.88197 4.95676 1043.52 306.858)" rx="10.81" ry="10.66"/>
  <ellipse class="fil1" transform="matrix(4.88832 -1.85598 1.88197 4.95676 1349.86 624.679)" rx="10.81" ry="10.66"/>
  <ellipse class="fil1" transform="matrix(4.88832 -1.85598 1.88197 4.95676 1341.31 975.752)" rx="10.81" ry="10.66"/>
  <ellipse class="fil1" transform="matrix(4.88832 -1.85598 1.88197 4.95676 1347.94 1279.87)" rx="10.81" ry="10.66"/>
  <ellipse class="fil1" transform="matrix(4.88832 -1.85598 1.88197 4.95676 1044.06 1279.65)" rx="10.81" ry="10.66"/>
  <ellipse class="fil1" transform="matrix(4.88832 -1.85598 1.88197 4.95676 681.241 1279.65)" rx="10.81" ry="10.66"/>
  <g id="_2607011275296">
   <path class="fil1" d="M221.07 647.94c1.41,-3.1 4.53,-11.23 4.39,-9.24 -0.12,1.86 2.71,-7.48 2.47,-9.21 -14.08,-98.22 -127.04,55.89 -6.86,18.45z"/>
   <ellipse class="fil1" transform="matrix(4.88832 -1.85598 1.88197 4.95676 387.754 307.594)" rx="10.81" ry="10.66"/>
   <ellipse class="fil1" transform="matrix(4.88832 -1.85598 1.88197 4.95676 387.536 624.767)" rx="10.81" ry="10.66"/>
   <ellipse class="fil1" transform="matrix(4.88832 -1.85598 1.88197 4.95676 388.123 974.954)" rx="10.81" ry="10.66"/>
   <ellipse class="fil1" transform="matrix(4.88832 -1.85598 1.88197 4.95676 389.541 1278.99)" rx="10.81" ry="10.66"/>
   <ellipse class="fil1" transform="matrix(3.2579 -1.23695 1.25427 3.30352 197.115 625.07)" rx="10.81" ry="10.66"/>
   <ellipse class="fil1" transform="matrix(3.2579 -1.23695 1.25427 3.30352 192.384 976.742)" rx="10.81" ry="10.66"/>
  </g>
  <ellipse class="fil1" transform="matrix(3.2579 -1.23695 1.25427 3.30352 1526.66 623.002)" rx="10.81" ry="10.66"/>
  <ellipse class="fil1" transform="matrix(10.1715 -3.86189 3.91595 10.3139 680.181 976.881)" rx="10.81" ry="10.66"/>
  <ellipse class="fil1" transform="matrix(10.1715 -3.86189 3.91595 10.3139 1042.76 979.311)" rx="10.81" ry="10.66"/>
  <ellipse class="fil1" transform="matrix(10.1715 -3.86189 3.91595 10.3139 1042.98 624.482)" rx="10.81" ry="10.66"/>
  <ellipse class="fil1" transform="matrix(10.1715 -3.86189 3.91595 10.3139 678.407 624.26)" rx="10.81" ry="10.66"/>
  <ellipse class="fil1" transform="matrix(3.2579 -1.23695 1.25427 3.30352 1042.98 1462.58)" rx="10.81" ry="10.66"/>
  <ellipse class="fil1" transform="matrix(3.2579 -1.23695 1.25427 3.30352 681.607 1461.25)" rx="10.81" ry="10.66"/>
  <ellipse class="fil2" transform="matrix(4.88832 -1.85598 1.88197 4.95676 680.175 623.786)" rx="10.81" ry="10.66"/>
  <path class="fil3" d="M899.28 1329.2c233.08,0 404.31,-145.87 404.31,-356.74 0,-199.78 -149.04,-345.65 -348.82,-345.65 -63.42,0 -131.59,17.44 -182.33,57.08l-3.17 1.58c74.52,-98.3 171.24,-202.95 244.17,-275.88 49.15,-42.81 28.54,-74.52 6.34,-95.13l-44.39 -41.23c-28.54,-25.36 -69.77,-22.19 -104.65,12.69 -209.29,221.97 -374.19,423.34 -372.6,667.51 3.17,234.66 169.65,375.77 401.14,375.77zm1.59 -160.14c-109.41,0 -191.85,-79.27 -191.85,-187.09 0,-109.4 84.03,-190.27 191.85,-190.27 109.4,0 193.43,80.87 193.43,190.27 0,107.82 -82.45,187.09 -193.43,187.09z"/>
 </g>
</svg>
