<?xml version="1.0" encoding="UTF-8"?>
<!DOCTYPE svg PUBLIC "-//W3C//DTD SVG 1.1//EN" "http://www.w3.org/Graphics/SVG/1.1/DTD/svg11.dtd">
<!-- Creator: CorelDRAW 2019 (64 Bit) -->
<svg xmlns="http://www.w3.org/2000/svg" xml:space="preserve" width="2480px" height="464px" version="1.1" style="shape-rendering:geometricPrecision; text-rendering:geometricPrecision; image-rendering:optimizeQuality; fill-rule:evenodd; clip-rule:evenodd"
viewBox="0 0 1462.56 273.65"
 xmlns:xlink="http://www.w3.org/1999/xlink">
 <defs>
  <style type="text/css">
   <![CDATA[
    .fil0 {fill:#E6E6E6}
    .fil1 {fill:white}
    .fil4 {fill:black;fill-rule:nonzero}
    .fil3 {fill:#33CC33;fill-rule:nonzero}
    .fil2 {fill:white;fill-rule:nonzero}
   ]]>
  </style>
 </defs>
 <g id="Camada_x0020_1">
  <metadata id="CorelCorpID_0Corel-Layer"/>
  <path class="fil0" d="M1325.73 0l-1187.45 0c-71.02,0 -131.44,53.81 -137.74,124.53 -7.08,81.01 56.73,149.12 136.36,149.12l1188.83 0c75.64,0 136.83,-61.34 136.83,-136.83 0,-75.48 -61.34,-136.82 -136.83,-136.82z"/>
  <ellipse class="fil1" transform="matrix(0.429816 -0.163191 0.165476 0.435833 272.066 155.628)" rx="9.18" ry="9.05"/>
  <path class="fil2" d="M371.2 134.4c8.35,-4.62 14.93,-12.44 14.93,-23.99 0,-20.08 -13.51,-30.74 -38.74,-30.74l-34.47 0c-3.38,0 -5.34,1.95 -5.34,5.33l0 104.84c0,3.2 1.96,5.33 5.34,5.33l37.49 0c25.41,0 42.29,-12.8 42.29,-31.99 0,-14.03 -8.71,-24.34 -21.5,-28.78zm-22.92 -42.47c15.28,0 23.28,6.57 23.28,19.19 0,12.08 -8.36,19.01 -23.28,19.01l-26.3 0 0 -38.2 26.3 0zm1.6 90.8l-27.9 0 0 -41.4 31.09 0c15.11,0 25.06,8.35 25.06,20.79 0,13.68 -9.77,20.61 -28.25,20.61z"/>
  <path id="1" class="fil2" d="M422.73 195.17l4.44 0c3.2,0 4.98,-2.13 4.98,-5.33l0 -104.84c0,-3.38 -1.78,-5.33 -4.98,-5.33l-4.44 0c-3.2,0 -4.97,1.95 -4.97,5.33l0 104.84c0,3.2 1.77,5.33 4.97,5.33z"/>
  <path id="2" class="fil2" d="M517.44 197.3c34.65,0 61.31,-25.59 61.31,-59.88 0,-34.3 -26.66,-59.89 -61.31,-59.89 -34.65,0 -61.12,25.59 -61.12,59.89 0,34.29 26.47,59.88 61.12,59.88zm0 -13.15c-26.3,0 -46.55,-19.55 -46.55,-46.73 0,-27.19 20.25,-46.74 46.55,-46.74 26.48,0 46.74,19.55 46.74,46.74 0,27.18 -20.26,46.73 -46.74,46.73z"/>
  <path id="3" class="fil3" d="M638.45 197.3c26.13,0 45.32,-16.35 45.32,-39.98 0,-22.39 -16.71,-38.74 -39.1,-38.74 -7.1,0 -14.74,1.96 -20.43,6.4l-0.36 0.18c8.36,-11.02 19.19,-22.75 27.37,-30.92 5.51,-4.8 3.2,-8.35 0.71,-10.66l-4.98 -4.62c-3.19,-2.85 -7.81,-2.49 -11.72,1.42 -23.46,24.87 -41.94,47.44 -41.76,74.81 0.35,26.3 19.01,42.11 44.95,42.11zm0.18 -17.95c-12.26,0 -21.5,-8.88 -21.5,-20.96 0,-12.27 9.42,-21.33 21.5,-21.33 12.26,0 21.68,9.06 21.68,21.33 0,12.08 -9.24,20.96 -21.68,20.96z"/>
  <ellipse class="fil1" transform="matrix(0.644917 -0.24486 0.248288 0.653946 177.644 80.4864)" rx="9.18" ry="9.05"/>
  <ellipse class="fil1" transform="matrix(0.644917 -0.24486 0.248288 0.653946 252.322 80.4234)" rx="9.18" ry="9.05"/>
  <ellipse class="fil1" transform="matrix(0.429816 -0.163191 0.165476 0.435833 177.389 60.5692)" rx="9.18" ry="9.05"/>
  <ellipse class="fil1" transform="matrix(0.429816 -0.163191 0.165476 0.435833 218.357 61.1053)" rx="9.18" ry="9.05"/>
  <ellipse class="fil1" transform="matrix(0.644917 -0.24486 0.248288 0.653946 218.177 80.4015)" rx="9.18" ry="9.05"/>
  <ellipse class="fil1" transform="matrix(0.644917 -0.24486 0.248288 0.653946 252.509 116.021)" rx="9.18" ry="9.05"/>
  <ellipse class="fil1" transform="matrix(0.644917 -0.24486 0.248288 0.653946 251.551 155.367)" rx="9.18" ry="9.05"/>
  <ellipse class="fil1" transform="matrix(0.644917 -0.24486 0.248288 0.653946 252.294 189.45)" rx="9.18" ry="9.05"/>
  <ellipse class="fil1" transform="matrix(0.644917 -0.24486 0.248288 0.653946 218.237 189.426)" rx="9.18" ry="9.05"/>
  <ellipse class="fil1" transform="matrix(0.644917 -0.24486 0.248288 0.653946 177.575 189.426)" rx="9.18" ry="9.05"/>
  <g id="_2533311105600">
   <path class="fil1" d="M126 118.63c0.16,-0.35 0.51,-1.26 0.49,-1.04 -0.01,0.21 0.31,-0.84 0.28,-1.03 -1.58,-11.01 -14.24,6.26 -0.77,2.07z"/>
   <ellipse class="fil1" transform="matrix(0.644917 -0.24486 0.248288 0.653946 144.683 80.484)" rx="9.18" ry="9.05"/>
   <ellipse class="fil1" transform="matrix(0.644917 -0.24486 0.248288 0.653946 144.659 116.031)" rx="9.18" ry="9.05"/>
   <ellipse class="fil1" transform="matrix(0.644917 -0.24486 0.248288 0.653946 144.724 155.277)" rx="9.18" ry="9.05"/>
   <ellipse class="fil1" transform="matrix(0.644917 -0.24486 0.248288 0.653946 144.883 189.352)" rx="9.18" ry="9.05"/>
   <ellipse class="fil1" transform="matrix(0.429816 -0.163191 0.165476 0.435833 123.317 116.065)" rx="9.18" ry="9.05"/>
   <ellipse class="fil1" transform="matrix(0.429816 -0.163191 0.165476 0.435833 122.787 155.478)" rx="9.18" ry="9.05"/>
  </g>
  <ellipse class="fil1" transform="matrix(0.429816 -0.163191 0.165476 0.435833 272.325 115.833)" rx="9.18" ry="9.05"/>
  <ellipse class="fil1" transform="matrix(1.34193 -0.509499 0.516632 1.36071 177.456 155.493)" rx="9.18" ry="9.05"/>
  <ellipse class="fil1" transform="matrix(1.34193 -0.509499 0.516632 1.36071 218.092 155.766)" rx="9.18" ry="9.05"/>
  <ellipse class="fil1" transform="matrix(1.34193 -0.509499 0.516632 1.36071 218.116 115.999)" rx="9.18" ry="9.05"/>
  <ellipse class="fil1" transform="matrix(1.34193 -0.509499 0.516632 1.36071 177.257 115.974)" rx="9.18" ry="9.05"/>
  <ellipse class="fil1" transform="matrix(0.429816 -0.163191 0.165476 0.435833 218.116 209.927)" rx="9.18" ry="9.05"/>
  <ellipse class="fil1" transform="matrix(0.429816 -0.163191 0.165476 0.435833 177.616 209.778)" rx="9.18" ry="9.05"/>
  <path class="fil4" d="M745.11 176.46c9.26,0 14.16,-5.59 14.16,-15.03l0 -8.66 -9.09 0 0 9.36c0,4.02 -1.92,5.59 -4.81,5.59 -2.88,0 -4.81,-1.57 -4.81,-5.59l0 -34.18c0,-4.02 1.93,-5.68 4.81,-5.68 2.89,0 4.81,1.66 4.81,5.68l0 7.08 9.09 0 0 -6.47c0,-9.44 -4.9,-15.03 -14.16,-15.03 -9.26,0 -14.16,5.59 -14.16,15.03l0 32.87c0,9.44 4.9,15.03 14.16,15.03z"/>
  <path id="1" class="fil4" d="M765.04 175.59l9.61 0 0 -26.22 3.32 0c4.37,0 6.03,1.83 6.03,7.51l0 11.19c0,4.98 0.35,5.94 0.88,7.52l9.79 0c-0.96,-2.28 -1.05,-4.46 -1.05,-7.43l0 -10.75c0,-6.91 -1.57,-11.45 -6.38,-12.94l0 -0.17c4.28,-1.75 6.29,-5.77 6.29,-12.07l0 -3.75c0,-9.44 -4.28,-14.08 -14.24,-14.08l-14.25 0 0 61.19zm9.61 -34.96l0 -17.49 4.37 0c3.41,0 4.9,1.93 4.9,6.3l0 4.72c0,4.89 -2.19,6.47 -5.77,6.47l-3.5 0z"/>
  <polygon id="2" class="fil4" points="800.26,175.59 809.88,175.59 809.88,114.4 800.26,114.4 "/>
  <polygon id="3" class="fil4" points="817.04,175.59 843.26,175.59 843.26,166.85 826.66,166.85 826.66,148.05 839.86,148.05 839.86,139.31 826.66,139.31 826.66,123.14 843.26,123.14 843.26,114.4 817.04,114.4 "/>
  <path id="4" class="fil4" d="M875.25 176.46c9.44,0 14.51,-5.59 14.51,-15.56 0,-7.6 -2.53,-12.5 -10.57,-19.58 -6.3,-5.5 -8.31,-8.74 -8.31,-13.19 0,-4.2 1.75,-5.86 4.81,-5.86 3.06,0 4.81,1.66 4.81,6.03l0 3.15 9.09 0 0 -2.54c0,-9.79 -4.64,-15.38 -13.99,-15.38 -9.35,0 -14.33,5.59 -14.33,15.21 0,6.99 2.62,11.97 10.66,19.05 6.3,5.51 8.22,8.74 8.22,13.81 0,4.55 -1.92,6.12 -4.98,6.12 -3.06,0 -4.99,-1.57 -4.99,-5.94l0 -4.2 -9.09 0 0 3.5c0,9.79 4.72,15.38 14.16,15.38z"/>
  <polygon id="5" class="fil4" points="895.27,175.59 921.49,175.59 921.49,166.85 904.88,166.85 904.88,148.05 918.08,148.05 918.08,139.31 904.88,139.31 904.88,123.14 921.49,123.14 921.49,114.4 895.27,114.4 "/>
  <path id="6" class="fil4" d="M940.98 176.46c9.44,0 14.33,-5.59 14.33,-15.38l0 -46.68 -9.26 0 0 47.38c0,4.37 -1.84,5.94 -4.89,5.94 -3.06,0 -4.9,-1.57 -4.9,-5.94l0 -47.38 -9.61 0 0 46.68c0,9.79 4.89,15.38 14.33,15.38z"/>
  <path id="7" class="fil4" d="M976.12 175.59l15.12 0c9.61,0 14.59,-5.07 14.59,-14.51l0 -5.25c0,-6.46 -2.01,-11.01 -7.16,-12.76l0 -0.17c4.28,-1.75 6.2,-5.68 6.2,-11.98l0 -2.44c0,-9.44 -4.28,-14.08 -14.25,-14.08l-14.5 0 0 61.19zm9.61 -36.28l0 -16.17 4.63 0c3.41,0 4.9,1.93 4.9,6.3l0 3.41c0,4.89 -2.19,6.46 -5.77,6.46l-3.76 0zm0 27.54l0 -18.8 4.28 0c4.37,0 6.21,1.75 6.21,7.43l0 5.34c0,4.54 -1.75,6.03 -4.98,6.03l-5.51 0z"/>
  <polygon id="8" class="fil4" points="1011.43,175.59 1021.04,175.59 1021.04,114.4 1011.43,114.4 "/>
  <path id="9" class="fil4" d="M1042.11 176.46c9.43,0 14.59,-5.59 14.59,-15.38l0 -32.17c0,-9.79 -5.16,-15.38 -14.59,-15.38 -9.44,0 -14.6,5.59 -14.6,15.38l0 32.17c0,9.79 5.16,15.38 14.6,15.38zm0 -8.74c-3.06,0 -4.99,-1.66 -4.99,-6.03l0 -33.39c0,-4.37 1.93,-6.03 4.99,-6.03 3.05,0 4.98,1.66 4.98,6.03l0 33.39c0,4.37 -1.93,6.03 -4.98,6.03z"/>
  <path id="10" class="fil4" d="M1077.33 176.46c9.44,0 14.59,-5.59 14.59,-15.38l0 -10.93c0,-9 -3.58,-13.98 -10.66,-13.98 -4.28,0 -7.08,1.83 -8.74,5.33l-0.17 0 0 -11.71c0,-5.86 1.92,-7.52 5.33,-7.52 3.06,0 4.98,1.66 4.98,6.03l0 1.75 9.09 0 0 -1.14c0,-9.79 -4.89,-15.38 -14.33,-15.38 -9.97,0 -14.69,5.59 -14.69,15.91l0 31.64c0,9.79 5.16,15.38 14.6,15.38zm0 -8.74c-3.32,0 -4.98,-1.92 -4.98,-5.94l0 -10.84c0,-4.11 1.66,-6.03 4.98,-6.03 3.32,0 4.98,1.92 4.98,6.03l0 10.84c0,4.02 -1.66,5.94 -4.98,5.94z"/>
  <polygon id="11" class="fil4" points="1119.63,175.59 1129.24,175.59 1129.24,123.14 1139.3,123.14 1139.3,114.4 1109.58,114.4 1109.58,123.14 1119.63,123.14 "/>
  <path id="12" class="fil4" d="M1137.37 175.59l8.92 0 1.75 -11.98 10.92 0 0 -0.17 1.75 12.15 9.61 0 -9.96 -61.19 -13.02 0 -9.97 61.19zm11.8 -20.28l4.2 -30.24 0.17 0 4.29 30.24 -8.66 0z"/>
  <polygon id="13" class="fil4" points="1174.96,175.59 1183.35,175.59 1183.35,129.26 1183.52,129.26 1190.51,175.59 1198.56,175.59 1205.55,129.26 1205.72,129.26 1205.72,175.59 1214.81,175.59 1214.81,114.4 1201.09,114.4 1194.97,158.19 1194.8,158.19 1188.68,114.4 1174.96,114.4 "/>
  <path id="14" class="fil4" d="M1221.98 175.59l15.12 0c9.61,0 14.6,-5.07 14.6,-14.51l0 -5.25c0,-6.46 -2.01,-11.01 -7.17,-12.76l0 -0.17c4.28,-1.75 6.21,-5.68 6.21,-11.98l0 -2.44c0,-9.44 -4.29,-14.08 -14.25,-14.08l-14.51 0 0 61.19zm9.61 -36.28l0 -16.17 4.64 0c3.41,0 4.89,1.93 4.89,6.3l0 3.41c0,4.89 -2.18,6.46 -5.77,6.46l-3.76 0zm0 27.54l0 -18.8 4.29 0c4.37,0 6.2,1.75 6.2,7.43l0 5.34c0,4.54 -1.75,6.03 -4.98,6.03l-5.51 0z"/>
  <path id="15" class="fil4" d="M1265.16 110.3l7.25 0 9.35 -10.06 -10.49 0 -6.11 10.06zm-7.87 65.29l26.22 0 0 -8.74 -16.61 0 0 -18.8 13.2 0 0 -8.74 -13.2 0 0 -16.17 16.61 0 0 -8.74 -26.22 0 0 61.19z"/>
  <polygon id="16" class="fil4" points="1289.02,175.59 1297.41,175.59 1297.41,129.26 1297.58,129.26 1304.58,175.59 1312.62,175.59 1319.61,129.26 1319.78,129.26 1319.78,175.59 1328.87,175.59 1328.87,114.4 1315.15,114.4 1309.03,158.19 1308.86,158.19 1302.74,114.4 1289.02,114.4 "/>
 </g>
</svg>
