<?xml version="1.0" standalone="no"?>
<!DOCTYPE svg PUBLIC "-//W3C//DTD SVG 20010904//EN"
 "http://www.w3.org/TR/2001/REC-SVG-20010904/DTD/svg10.dtd">
<svg version="1.0" xmlns="http://www.w3.org/2000/svg"
 width="1280.000000pt" height="677.000000pt" viewBox="0 0 1280.000000 677.000000"
 preserveAspectRatio="xMidYMid meet">

<g transform="translate(0.000000,677.000000) scale(0.100000,-0.100000)"
fill="#000000" stroke="none">
<path d="M3403 6759 c-471 -45 -869 -283 -1117 -667 -65 -99 -158 -296 -197
-414 l-32 -98 -168 0 -168 0 -10 -52 c-6 -29 -31 -151 -55 -270 l-43 -218 169
0 170 0 -5 -22 c-14 -56 -587 -2866 -587 -2876 0 -9 119 -12 483 -12 l483 0
289 1413 c158 776 293 1431 298 1455 l9 42 363 0 c338 0 364 1 369 18 3 9 26
123 51 252 25 129 48 243 51 253 5 16 -17 17 -354 17 l-359 0 23 113 c66 311
158 435 356 482 166 39 546 0 712 -74 l45 -20 6 32 c4 18 28 145 54 282 l48
250 -84 27 c-235 78 -549 112 -800 87z"/>
<path d="M11825 6698 c-2 -7 -54 -260 -115 -562 -61 -303 -113 -552 -115 -554
-3 -3 -103 5 -222 17 -289 28 -398 16 -629 -71 -643 -241 -1263 -1074 -1354
-1818 -52 -429 122 -756 455 -856 120 -36 379 -18 590 42 105 29 286 114 375
174 84 57 203 171 257 247 34 48 51 63 69 63 13 0 24 -6 24 -13 0 -7 -22 -115
-50 -240 -27 -125 -50 -230 -50 -232 0 -3 215 -5 478 -5 l477 0 333 1628 c183
895 359 1754 391 1910 l58 282 -484 0 c-378 0 -485 -3 -488 -12z"/>
<path d="M755 6688 c-5 -16 -155 -770 -155 -780 0 -5 218 -8 485 -8 l485 0 5
23 c6 24 155 769 155 774 0 2 -218 3 -485 3 -380 0 -487 -3 -490 -12z"/>
<path d="M4977 5615 c-347 -48 -669 -186 -937 -402 -98 -79 -260 -247 -339
-351 -255 -337 -412 -768 -411 -1127 1 -150 42 -304 111 -422 44 -73 157 -193
235 -249 393 -281 1042 -303 1588 -55 237 108 487 299 672 514 225 262 374
552 451 877 34 143 43 389 19 507 -77 383 -400 637 -896 708 -127 18 -360 18
-493 0z"/>
<path d="M8075 5619 c-406 -49 -785 -228 -1079 -509 -326 -311 -544 -718 -617
-1150 -20 -116 -18 -330 5 -420 54 -221 190 -396 403 -522 210 -123 450 -181
748 -180 291 1 534 58 800 187 533 258 941 758 1085 1330 111 440 29 780 -242
1004 -132 109 -334 199 -547 242 -113 24 -428 34 -556 18z"/>
<path d="M496 5343 c-27 -131 -148 -736 -271 -1346 l-223 -1107 486 2 486 3
267 1330 c148 732 268 1336 269 1343 0 9 -103 12 -484 12 l-483 0 -47 -237z"/>
<path d="M2985 2088 c17 -97 67 -283 106 -389 308 -847 1065 -1481 1959 -1643
182 -33 307 -41 610 -40 317 0 429 9 675 55 570 106 1115 346 1579 696 76 57
142 101 146 96 4 -4 70 -187 146 -405 76 -218 140 -396 141 -394 5 4 432 2060
429 2063 -2 2 -441 2 -976 1 l-973 -3 317 -244 c174 -134 319 -247 321 -251
11 -17 -266 -233 -433 -337 -382 -238 -860 -418 -1307 -492 -362 -61 -720 -55
-1044 15 -665 144 -1302 628 -1606 1222 -40 79 -51 92 -72 92 -24 0 -24 -2
-18 -42z"/>
</g>
</svg>
