<?xml version="1.0" encoding="UTF-8"?>
<!DOCTYPE svg PUBLIC "-//W3C//DTD SVG 1.1//EN" "http://www.w3.org/Graphics/SVG/1.1/DTD/svg11.dtd">
<!-- Creator: CorelDRAW 2019 (64 Bit) -->
<svg xmlns="http://www.w3.org/2000/svg" xml:space="preserve" width="2480px" height="1314px" version="1.1" style="shape-rendering:geometricPrecision; text-rendering:geometricPrecision; image-rendering:optimizeQuality; fill-rule:evenodd; clip-rule:evenodd"
viewBox="0 0 1017.43 539.15"
 xmlns:xlink="http://www.w3.org/1999/xlink">
 <defs>
  <style type="text/css">
   <![CDATA[
    .fil1 {fill:#8CE563}
    .fil2 {fill:#F28000}
    .fil0 {fill:white}
   ]]>
  </style>
 </defs>
 <g id="Camada_x0020_1">
  <metadata id="CorelCorpID_0Corel-Layer"/>
  <g>
   <path class="fil0" d="M192.79 445.15c-58.04,0 -98.07,-48.62 -98.07,-120.52 0,-72.6 40.03,-121.23 98.07,-121.23 58.04,0 98.06,48.63 98.06,120.54 0,72.59 -40.03,121.21 -98.06,121.21l0 0zm0 91.1c107.4,0 192.78,-90.37 192.78,-212.27 0,-120.53 -80.72,-211.62 -192.78,-211.62 -107.41,-0.04 -192.79,90.36 -192.79,212.27 0,122.58 80.72,211.62 192.79,211.62z"/>
  </g>
  <g>
   <path class="fil1" d="M464.95 374.62l184.12 0c12.67,0 19.97,-7.53 19.97,-20.56l0 -59.57c0,-13.01 -7.36,-20.54 -19.97,-20.54l-123.41 0 0 -253.41c0,-13.01 -7.36,-20.54 -19.97,-20.54l-60.75 0c-12.67,0 -19.96,7.54 -19.96,20.54l0 312.99c0,26.7 14,41.09 40.01,41.09l-0.04 0zm0 0l0 0 0 0z"/>
  </g>
  <g>
   <path class="fil2" d="M715.12 530.07l110.73 -130.74 107.39 130.8c9.35,11.65 21.36,11.65 32.02,2.1l43.37 -39.04c10.67,-9.59 12,-21.91 2,-32.87l-119.41 -137.07 108.73 -125.33c9.34,-10.95 8.68,-22.61 -1.99,-32.87l-40.69 -37.67c-10.68,-10.27 -22.69,-9.59 -32.03,2.11l-99.39 118.43 -101.4 -118.49c-9.33,-10.96 -21.34,-12.32 -32.02,-2.1l-42.03 38.35c-10.68,10.28 -11.34,21.24 -1.34,32.87l110.71 125.39 -120.74 137.66c-10.02,11.63 -8.68,23.28 1.99,32.87l42.04 37.66c10.67,9.6 22.68,8.9 32.02,-2.1l0.04 0.04zm0 0l0 0 0 0z"/>
  </g>
 </g>
</svg>
