<?xml version="1.0" standalone="no"?>
<!DOCTYPE svg PUBLIC "-//W3C//DTD SVG 20010904//EN"
 "http://www.w3.org/TR/2001/REC-SVG-20010904/DTD/svg10.dtd">
<svg version="1.0" xmlns="http://www.w3.org/2000/svg"
 width="256.000000pt" height="256.000000pt" viewBox="0 0 256.000000 256.000000"
 preserveAspectRatio="xMidYMid meet">

<g transform="translate(0.000000,256.000000) scale(0.100000,-0.100000)"
fill="#000000" stroke="none">
<path d="M1152 2370 c-151 -71 -267 -269 -306 -517 l-12 -78 -250 -5 c-261 -5
-271 -7 -294 -50 -6 -11 8 -262 40 -693 43 -603 51 -681 70 -724 28 -63 54
-91 115 -119 l50 -24 709 0 c509 0 720 3 747 12 57 16 113 69 139 130 20 47
26 110 71 727 30 419 45 681 39 691 -23 43 -33 45 -294 50 l-251 5 -7 60 c-12
94 -55 231 -99 316 -82 157 -207 249 -339 249 -51 0 -78 -6 -128 -30z m217
-100 c55 -27 126 -111 166 -194 36 -74 75 -217 75 -273 l0 -33 -330 0 -330 0
0 33 c0 56 39 199 75 272 40 84 93 148 154 187 56 35 131 38 190 8z m53 -775
c33 -9 81 -26 106 -38 37 -18 48 -28 50 -50 8 -64 -27 -69 -153 -23 -125 46
-245 27 -298 -46 -28 -37 -34 -120 -13 -153 29 -44 94 -83 194 -116 176 -58
245 -105 297 -201 78 -142 -6 -340 -167 -394 -70 -23 -200 -15 -289 18 -90 33
-196 94 -215 124 -15 22 -15 26 0 49 22 33 51 32 106 -5 25 -17 79 -44 120
-62 64 -27 87 -32 160 -32 68 -1 92 3 118 19 83 50 118 174 70 245 -38 57
-101 96 -205 130 -225 73 -308 150 -307 286 1 114 73 217 174 249 61 18 179
18 252 0z"/>
</g>
</svg>
